# xmcd
#
# Track frame offsets: 
#        150
#        12871
#        20362
#        30898
#        39742
#        49743
#        59412
#        71877
#        77145
#        87659
#        97890
#        108289
#        118414
#        127997
#        138071
#        148601
#        159042
#        167271
#        176537
#        183373
#        189034
#        200447
#        206139
#        214863
#
# Disc length: 2961 seconds
#
# Revision: 0
# Processed by: cddbd v1.5.2PL0 Copyright (c) Steve Scherf et al.
# Submitted via: ExactAudioCopyFreeDBPlugin 1.0
#
DISCID=400b8f18
DTITLE=Buck Owens - Bound for Bakersfield 1953-56
DYEAR=2011
DGENRE=Country
TTITLE0=Blue Love (with studio chatter)
TTITLE1=Down on the Corner of Love (alt take)
TTITLE2=Down on the Corner of Love 
TTITLE3=It Don't Show on Me (alt take)
TTITLE4=It Don't Show on Me
TTITLE5=The House Down the Block (alt take)
TTITLE6=The House Down the Block
TTITLE7=Right After the Dance (alt take)
TTITLE8=Right After the Dance
TTITLE9=Hot Dog
TTITLE10=Hot Dog (overdudded single)
TTITLE11=Rhythm and Booze
TTITLE12=There Goes My Love (alt take)
TTITLE13=There Goes My Love
TTITLE14=Sweethearts in Heaven (alt take)
TTITLE15=Sweethearts in Heaven
TTITLE16=Honeysuckle
TTITLE17=Country Girl (Leaving Dirty Tracks)
TTITLE18=You're Fer Me
TTITLE19=Blue Love
TTITLE20=Please Don't Take Her From Me
TTITLE21=Three Dimension Love
TTITLE22=Why Don't My Mommy Stay with My Daddy and Me
TTITLE23=I'm Gonna Blow
EXTD=
EXTT0=
EXTT1=
EXTT2=
EXTT3=
EXTT4=
EXTT5=
EXTT6=
EXTT7=
EXTT8=
EXTT9=
EXTT10=
EXTT11=
EXTT12=
EXTT13=
EXTT14=
EXTT15=
EXTT16=
EXTT17=
EXTT18=
EXTT19=
EXTT20=
EXTT21=
EXTT22=
EXTT23=
PLAYORDER=
